<svg width="38" height="45" viewBox="0 0 38 45" fill="none" xmlns="http://www.w3.org/2000/svg">
<path id="Vector" d="M19 30.7895C8.5025 30.7895 0 35.0289 0 40.2632V45H38V40.2632C38 35.0289 29.4975 30.7895 19 30.7895ZM9.5 16.5789C9.5 19.0915 10.5009 21.5012 12.2825 23.2779C14.0641 25.0545 16.4804 26.0526 19 26.0526C21.5196 26.0526 23.9359 25.0545 25.7175 23.2779C27.4991 21.5012 28.5 19.0915 28.5 16.5789M17.8125 0C17.1 0 16.625 0.497368 16.625 1.18421V8.28947H14.25V2.36842C14.25 2.36842 8.90625 4.40526 8.90625 11.25C8.90625 11.25 7.125 11.5816 7.125 14.2105H30.875C30.7563 11.5816 29.0938 11.25 29.0938 11.25C29.0938 4.40526 23.75 2.36842 23.75 2.36842V8.28947H21.375V1.18421C21.375 0.497368 20.9237 0 20.1875 0H17.8125Z" fill="black"/>
</svg>
