<svg width="31" height="26" viewBox="0 0 31 26" fill="none" xmlns="http://www.w3.org/2000/svg">
<path id="Vector" d="M23.2227 11.0824C23.623 11.7642 23.9209 12.4744 24.1162 13.2131C24.3115 13.9517 24.4141 14.714 24.4238 15.5V16.9631L15.0488 21.5227L5.67383 16.9631C5.67383 16.3949 5.67871 15.8646 5.68848 15.3722C5.69824 14.8797 5.74219 14.4015 5.82031 13.9375C5.89844 13.4735 6.01562 13.0095 6.17188 12.5455C6.32812 12.0814 6.5625 11.5938 6.875 11.0824L3.79883 9.59091V17.929C4.08203 18.0237 4.33594 18.1562 4.56055 18.3267C4.78516 18.4972 4.98535 18.696 5.16113 18.9233C5.33691 19.1506 5.46387 19.3968 5.54199 19.6619C5.62012 19.9271 5.66406 20.2064 5.67383 20.5V25.0455H0.0488281V20.5C0.0488281 20.2159 0.0927734 19.9413 0.180664 19.6761C0.268555 19.411 0.395508 19.16 0.561523 18.9233C0.727539 18.6866 0.922852 18.4877 1.14746 18.3267C1.37207 18.1657 1.63086 18.0331 1.92383 17.929V8.68182L0.0488281 7.77273L15.0488 0.5L30.0488 7.77273L23.2227 11.0824ZM3.79883 20.5C3.79883 20.2538 3.70605 20.0407 3.52051 19.8608C3.33496 19.6809 3.11523 19.5909 2.86133 19.5909C2.60742 19.5909 2.3877 19.6809 2.20215 19.8608C2.0166 20.0407 1.92383 20.2538 1.92383 20.5V23.2273H3.79883V20.5ZM4.23828 7.77273L15.0488 13.0142L25.8594 7.77273L15.0488 2.53125L4.23828 7.77273ZM22.5488 15.8409C22.5488 15.1117 22.4756 14.4347 22.3291 13.8097C22.1826 13.1847 21.9238 12.5455 21.5527 11.892L15.0488 15.0455L8.54492 11.892C8.22266 12.4413 7.97852 13.0189 7.8125 13.625C7.64648 14.2311 7.55859 14.8561 7.54883 15.5V15.8409L15.0488 19.4773L22.5488 15.8409Z" fill="black"/>
</svg>
