<svg width="44" height="48" viewBox="0 0 44 48" fill="none" xmlns="http://www.w3.org/2000/svg">
<g id="Group">
<path id="Vector" d="M23.5714 46.2857H20.4285C18.6921 46.2857 17.2856 44.8793 17.2856 43.1429V40H26.7142V43.1429C26.7142 44.8793 25.3078 46.2857 23.5714 46.2857Z" stroke="black" stroke-width="3" stroke-miterlimit="10" stroke-linejoin="round"/>
<path id="Vector_2" d="M33 22.7143C33 26.6711 31.1363 30.397 27.9714 32.7714L26.7143 33.7143V40H17.2857V33.7143L16.0286 32.7714C12.8637 30.397 11 26.6711 11 22.7143C11 16.6391 15.9249 11.7143 22 11.7143C28.0751 11.7143 33 16.6391 33 22.7143Z" stroke="black" stroke-width="3" stroke-miterlimit="10" stroke-linejoin="round"/>
<path id="Vector_3" d="M22 6.99999V0.714279" stroke="black" stroke-width="3" stroke-miterlimit="10" stroke-linejoin="round"/>
<path id="Vector_4" d="M10.8899 11.6027L6.44434 7.15715" stroke="black" stroke-width="3" stroke-miterlimit="10" stroke-linejoin="round"/>
<path id="Vector_5" d="M33.1099 11.6027L37.5554 7.15715" stroke="black" stroke-width="3" stroke-miterlimit="10" stroke-linejoin="round"/>
<path id="Vector_6" d="M6.28571 22.7143H0" stroke="black" stroke-width="3" stroke-miterlimit="10" stroke-linejoin="round"/>
<path id="Vector_7" d="M37.7144 22.7143H44.0001" stroke="black" stroke-width="3" stroke-miterlimit="10" stroke-linejoin="round"/>
</g>
</svg>
