<svg width="21" height="27" viewBox="0 0 21 27" fill="none" xmlns="http://www.w3.org/2000/svg">
<g id="Group">
<path id="Vector" d="M5.04876 16.9286C4.85932 16.9286 4.67764 16.8533 4.54368 16.7194C4.40973 16.5854 4.33447 16.4037 4.33447 16.2143C4.33447 16.0248 4.40973 15.8432 4.54368 15.7092C4.67764 15.5753 4.85932 15.5 5.04876 15.5H15.0488C15.2382 15.5 15.4199 15.5753 15.5538 15.7092C15.6878 15.8432 15.763 16.0248 15.763 16.2143C15.763 16.4037 15.6878 16.5854 15.5538 16.7194C15.4199 16.8533 15.2382 16.9286 15.0488 16.9286H5.04876ZM5.04876 20.5C4.85932 20.5 4.67764 20.4247 4.54368 20.2908C4.40973 20.1568 4.33447 19.9752 4.33447 19.7857C4.33447 19.5963 4.40973 19.4146 4.54368 19.2806C4.67764 19.1467 4.85932 19.0714 5.04876 19.0714H15.0488C15.2382 19.0714 15.4199 19.1467 15.5538 19.2806C15.6878 19.4146 15.763 19.5963 15.763 19.7857C15.763 19.9752 15.6878 20.1568 15.5538 20.2908C15.4199 20.4247 15.2382 20.5 15.0488 20.5H5.04876Z" fill="black"/>
<path id="Vector_2" fill-rule="evenodd" clip-rule="evenodd" d="M11.7417 0.5H2.19169C1.62336 0.5 1.07832 0.725765 0.676457 1.12763C0.274593 1.52949 0.0488281 2.07454 0.0488281 2.64286V24.0714C0.0488281 24.6397 0.274593 25.1848 0.676457 25.5867C1.07832 25.9885 1.62336 26.2143 2.19169 26.2143H17.906C18.4743 26.2143 19.0193 25.9885 19.4212 25.5867C19.8231 25.1848 20.0488 24.6397 20.0488 24.0714V9.36C20.0487 8.82353 19.8473 8.30663 19.4845 7.91143L13.3217 1.19429C13.1208 0.975351 12.8767 0.800572 12.6047 0.681049C12.3327 0.561527 12.0388 0.499872 11.7417 0.5ZM1.4774 2.64286C1.4774 2.45342 1.55265 2.27174 1.68661 2.13778C1.82056 2.00383 2.00224 1.92857 2.19169 1.92857H11.7417C11.8408 1.92846 11.9389 1.94898 12.0296 1.98883C12.1204 2.02867 12.2018 2.08696 12.2688 2.16L18.4317 8.87714C18.5528 9.0088 18.6201 9.18111 18.6203 9.36V24.0714C18.6203 24.2609 18.545 24.4425 18.411 24.5765C18.2771 24.7105 18.0954 24.7857 17.906 24.7857H2.19169C2.00224 24.7857 1.82056 24.7105 1.68661 24.5765C1.55265 24.4425 1.4774 24.2609 1.4774 24.0714V2.64286Z" fill="black"/>
<path id="Vector_3" d="M12.1917 2.07141V8.7857H18.9059" stroke="black" stroke-linecap="round" stroke-linejoin="round"/>
<path id="Vector_4" d="M7.38314 7.83289C7.58715 7.83914 7.79033 7.80435 7.98064 7.7306C8.17094 7.65684 8.3445 7.54562 8.49101 7.40352C8.63752 7.26143 8.75401 7.09136 8.83355 6.9034C8.9131 6.71544 8.95409 6.51342 8.95409 6.30932C8.95409 6.10522 8.9131 5.9032 8.83355 5.71524C8.75401 5.52728 8.63752 5.35721 8.49101 5.21512C8.3445 5.07302 8.17094 4.9618 7.98064 4.88804C7.79033 4.81429 7.58715 4.7795 7.38314 4.78575C6.98714 4.79788 6.61142 4.96371 6.3356 5.24811C6.05977 5.53251 5.90552 5.91313 5.90552 6.30932C5.90552 6.70551 6.05977 7.08613 6.3356 7.37053C6.61142 7.65493 6.98714 7.82076 7.38314 7.83289Z" fill="black"/>
<path id="Vector_5" fill-rule="evenodd" clip-rule="evenodd" d="M10.4288 11.1343C10.4288 9.51429 9.06447 8.34143 7.38162 8.34143C5.69876 8.34143 4.33447 9.51286 4.33447 11.1343V11.8971C4.33485 12.0318 4.3886 12.1608 4.48393 12.2558C4.57927 12.3509 4.70841 12.4043 4.84304 12.4043H9.92162C10.056 12.4039 10.1848 12.3504 10.2798 12.2553C10.3748 12.1603 10.4284 12.0315 10.4288 11.8971V11.1343Z" fill="black"/>
</g>
</svg>
