<svg width="72" height="72" viewBox="0 0 72 72" fill="none" xmlns="http://www.w3.org/2000/svg">
<g id="Logo" clip-path="url(#clip0_192_626)">
<g id="Group">
<path id="Vector" fill-rule="evenodd" clip-rule="evenodd" d="M8 72H64C68.4183 72 72 68.4183 72 64V8C72 3.58172 68.4183 0 64 0H8C3.58172 0 0 3.58172 0 8V64C0 68.4183 3.58172 72 8 72Z" fill="#EC4989"/>
<path id="Vector_2" fill-rule="evenodd" clip-rule="evenodd" d="M47.4546 52.9985C47.2457 51.7625 46.1535 45.7459 43.4637 38.3606C50.0822 37.3024 55.8144 39.1169 56.2378 39.2552C55.3262 44.967 52.055 49.8915 47.4546 52.9985ZM36.0014 56.4979C31.0397 56.4979 26.49 54.7341 22.9423 51.7992C23.2133 52.0193 23.4024 52.1576 23.4024 52.1576C23.4024 52.1576 27.3311 43.5899 39.487 39.354C39.5322 39.3371 39.5802 39.3258 39.6253 39.3117C42.5098 46.8042 43.698 53.0804 44.0028 54.8724C41.5445 55.9165 38.8379 56.4979 36.0014 56.4979ZM15.5026 35.9986C15.5026 35.7813 15.5138 35.5668 15.5195 35.3523C15.8836 35.3608 26.0102 35.5894 36.5631 32.4315C37.1501 33.5801 37.7118 34.7513 38.2254 35.9168C37.9545 35.9901 37.6864 36.072 37.4182 36.1623C26.3574 39.735 20.7465 49.6855 20.7465 49.6855C20.7465 49.6855 20.755 49.6939 20.755 49.6968C17.4895 46.0648 15.5026 41.2645 15.5026 35.9986ZM27.2549 17.4663C27.5287 17.8303 31.3191 22.9693 34.8668 29.2737C25.0252 31.8897 16.4819 31.7853 15.9428 31.7768C17.2722 25.4272 21.5368 20.1641 27.2549 17.4663ZM31.0905 16.1004C31.0905 16.1032 31.0877 16.1061 31.0877 16.1061C31.0877 16.1061 31.0623 16.1117 31.0256 16.1173C31.0482 16.1117 31.0679 16.1089 31.0905 16.1004ZM49.5375 20.6213C49.4867 20.6975 46.5684 25.1422 38.8294 28.0404C35.3269 21.6034 31.4772 16.4899 31.1695 16.0835C32.719 15.7082 34.3362 15.505 36.0014 15.505C41.1889 15.505 45.9277 17.4409 49.5375 20.6213ZM56.4918 35.7954C56.1954 35.7305 49.2581 34.2376 42.2163 35.1238C42.0695 34.7738 41.9256 34.4211 41.7732 34.0683C41.347 33.0637 40.8869 32.0703 40.41 31.0939C48.5045 27.7893 51.7897 23.0398 51.8292 22.9834C54.7024 26.4742 56.4438 30.933 56.4918 35.7954ZM59.5146 31.1701C59.1984 29.6293 58.7243 28.1082 58.1118 26.6577C57.5135 25.2353 56.7656 23.8638 55.8991 22.5826C55.0439 21.3127 54.0561 20.1162 52.9723 19.0325C51.8857 17.946 50.6918 16.9611 49.4189 16.1032C48.1376 15.2341 46.7659 14.4919 45.3434 13.8879C43.8928 13.2784 42.3743 12.8043 40.8333 12.491C39.2528 12.1665 37.6271 12 36.0014 12C34.3729 12 32.7472 12.1665 31.1667 12.491C29.6257 12.8043 28.1073 13.2784 26.6566 13.8879C25.2341 14.4919 23.8624 15.2341 22.5782 16.1032C21.3082 16.9611 20.1143 17.946 19.0277 19.0325C17.9439 20.1162 16.9589 21.3127 16.1009 22.5826C15.2344 23.8638 14.4865 25.2353 13.8882 26.6577C13.2729 28.1082 12.8016 29.6293 12.4854 31.1701C12.1637 32.7476 12 34.3731 12 35.9986C12 37.6297 12.1637 39.2552 12.4854 40.8356C12.8016 42.3764 13.2729 43.8946 13.8882 45.3424C14.4865 46.7647 15.2344 48.1418 16.1009 49.423C16.9589 50.6929 17.9439 51.8838 19.0277 52.9731C20.1143 54.0568 21.3082 55.0389 22.5782 55.8996C23.8624 56.7659 25.2341 57.511 26.6566 58.1121C28.1073 58.7273 29.6257 59.1957 31.1667 59.509C32.7472 59.8363 34.3729 60 36.0014 60C37.6271 60 39.2528 59.8363 40.8333 59.509C42.3743 59.1957 43.8928 58.7273 45.3434 58.1121C46.7659 57.511 48.1376 56.7659 49.4189 55.8996C50.6918 55.0389 51.8857 54.0568 52.9723 52.9731C54.0561 51.8838 55.0439 50.6929 55.8991 49.423C56.7656 48.1418 57.5135 46.7647 58.1118 45.3424C58.7243 43.8946 59.1984 42.3764 59.5146 40.8356C59.8363 39.2552 60 37.6297 60 35.9986C60 34.3731 59.8363 32.7476 59.5146 31.1701Z" fill="white"/>
</g>
</g>
<defs>
<clipPath id="clip0_192_626">
<rect width="72" height="72" fill="white"/>
</clipPath>
</defs>
</svg>
