<svg width="72" height="72" viewBox="0 0 72 72" fill="none" xmlns="http://www.w3.org/2000/svg">
<g id="Group">
<path id="Vector" fill-rule="evenodd" clip-rule="evenodd" d="M8 72H64C68.4183 72 72 68.4183 72 64V8C72 3.58172 68.4183 0 64 0H8C3.58172 0 0 3.58172 0 8V64C0 68.4183 3.58172 72 8 72Z" fill="#0863FF"/>
<path id="Vector_2" fill-rule="evenodd" clip-rule="evenodd" d="M42.6718 26.006H55.383V22.3643H42.6718V26.006ZM45.6831 33.9522C44.8731 34.7763 44.3623 35.8928 44.1534 37.3016H54.0396C53.9352 35.7981 53.4216 34.6622 52.5128 33.8798C51.5928 33.103 50.4611 32.716 49.1064 32.716C47.6389 32.716 46.493 33.1281 45.6831 33.9522ZM54.2626 29.0631C55.795 29.7369 57.0566 30.806 58.05 32.265C58.9559 33.5513 59.5373 35.0436 59.8026 36.7392C59.9578 37.7304 60.0199 39.1671 59.9945 41.0353H44.0123C44.1083 43.2042 44.8646 44.7271 46.3096 45.5986C47.1845 46.1415 48.2372 46.4144 49.4733 46.4144C50.7743 46.4144 51.8383 46.0831 52.6539 45.4232C53.1026 45.064 53.4978 44.5684 53.8364 43.9336H59.6925C59.5373 45.2144 58.8261 46.5202 57.5674 47.8455C55.6031 49.9476 52.8515 51 49.3152 51C46.3943 51 43.8176 50.1146 41.5909 48.3383C39.3528 46.5647 38.2409 43.6747 38.2409 39.6766C38.2409 35.9262 39.2484 33.0501 41.2607 31.0483C43.2785 29.052 45.8891 28.0469 49.1036 28.0469C51.0142 28.0469 52.7329 28.3865 54.2626 29.0631ZM17.9125 37.3796V45.1838H25.1148C26.4017 45.1838 27.4064 45.0111 28.1205 44.6687C29.4215 44.0283 30.0706 42.8144 30.0706 41.0158C30.0706 39.49 29.4441 38.4459 28.1825 37.8752C27.477 37.5578 26.4864 37.3907 25.2164 37.3796H17.9125ZM17.9125 26.0812V32.5378H25.1261C26.4102 32.5378 27.4572 32.2956 28.2644 31.8111C29.0659 31.3267 29.4695 30.4691 29.4695 29.2441C29.4695 27.877 28.9389 26.9777 27.8777 26.5378C26.9577 26.2343 25.7893 26.0812 24.3697 26.0812H17.9125ZM34.0217 24.1183C34.9276 25.3629 35.382 26.8497 35.382 28.5842C35.382 30.3689 34.9276 31.8084 34.0104 32.8942C33.4968 33.5012 32.7432 34.058 31.747 34.5592C33.2597 35.1049 34.3999 35.9652 35.176 37.1429C35.9436 38.3179 36.3303 39.749 36.3303 41.4306C36.3303 43.1652 35.89 44.7216 35.0066 46.097C34.4479 47.0074 33.7479 47.7759 32.9069 48.3995C31.9615 49.1151 30.8467 49.6023 29.557 49.8696C28.2672 50.1341 26.873 50.2622 25.366 50.2622H12V21H26.334C29.9521 21.0529 32.5118 22.0914 34.0217 24.1183Z" fill="white"/>
</g>
</svg>
