<svg width="42" height="43" viewBox="0 0 42 43" fill="none" xmlns="http://www.w3.org/2000/svg">
<g id="Layer 2">
<path id="Vector" d="M24.5151 4.75068C24.2751 5.49702 23.8044 6.14793 23.1709 6.6097C22.5373 7.07147 21.7735 7.32026 20.9895 7.32026C20.2055 7.32026 19.4418 7.07147 18.8082 6.6097C18.1746 6.14793 17.7039 5.49702 17.4639 4.75068L15.9365 0.147491L0.076416 8.07752V21.9289H6.35349V42.8525H35.6465V21.9289H41.9236V8.07752L26.0635 0.147491L24.5151 4.75068ZM28.4906 6.06886L37.7388 10.672V17.7442H31.4618V38.6678H10.5382V17.7442H4.26113V10.672L13.5093 6.04794C14.0295 7.62382 15.0335 8.99551 16.3783 9.96782C17.7232 10.9401 19.3405 11.4635 21 11.4635C22.6595 11.4635 24.2768 10.9401 25.6216 9.96782C26.9665 8.99551 27.9704 7.62382 28.4906 6.04794V6.06886Z" fill="black"/>
<path id="Vector_2" d="M29.3694 17.7442H23.0923V21.9289H29.3694V17.7442Z" fill="black"/>
</g>
</svg>
