<svg width="29" height="36" viewBox="0 0 29 36" fill="none" xmlns="http://www.w3.org/2000/svg">
<path id="Vector" d="M27.6999 35.9997C27.5136 35.9997 27.3266 35.9564 27.1556 35.8691L14.5 29.4261L1.84442 35.8691C1.47294 36.0589 1.02822 36.0413 0.67314 35.8228C0.316893 35.6048 0.100098 35.2169 0.100098 34.7997V5.03668C0.100098 2.25936 2.35946 0 5.13678 0H23.8632C26.6405 0 28.8999 2.25936 28.8999 5.03668V34.7997C28.8999 35.2169 28.6831 35.6048 28.3268 35.8228C28.1352 35.9405 27.9179 35.9997 27.6999 35.9997ZM14.5 26.8797C14.6869 26.8797 14.8732 26.923 15.0443 27.0103L26.4999 32.8421V5.03668C26.4999 3.58298 25.3169 2.39998 23.8632 2.39998H5.13678C3.68308 2.39998 2.50008 3.58298 2.50008 5.03668V32.8421L13.9557 27.0103C14.1267 26.923 14.3131 26.8797 14.5 26.8797Z" fill="black"/>
</svg>
