<svg width="31" height="30" viewBox="0 0 31 30" fill="none" xmlns="http://www.w3.org/2000/svg">
<path id="Vector" fill-rule="evenodd" clip-rule="evenodd" d="M26.8347 0C28.8577 0 30.5 1.64238 30.5 3.66527V26.3347C30.5 28.3576 28.8576 30 26.8347 30H20.5964V18.6964H24.4987L25.2412 13.8553H20.5964V10.7137C20.5964 9.3893 21.2452 8.0983 23.3257 8.0983H25.4375V3.97682C25.4375 3.97682 23.5209 3.64975 21.6886 3.64975C17.8631 3.64975 15.3628 5.96824 15.3628 10.1656V13.8553H11.1104V18.6964H15.3628V30H4.16527C2.14238 30 0.5 28.3576 0.5 26.3347V3.66527C0.5 1.64238 2.14232 0 4.16527 0L26.8347 0Z" fill="#1777F2"/>
</svg>
