<svg width="72" height="72" viewBox="0 0 72 72" fill="none" xmlns="http://www.w3.org/2000/svg">
<g id="ads manager">
<path id="Vector" d="M61.5044 0H10.4956C4.69905 0 0 4.69905 0 10.4956V61.5044C0 67.3009 4.69905 72 10.4956 72H61.5044C67.3009 72 72 67.3009 72 61.5044V10.4956C72 4.69905 67.3009 0 61.5044 0Z" fill="#525967"/>
<path id="Vector_2" d="M61.5044 3.14869C63.4529 3.14869 65.3216 3.92274 66.6994 5.30056C68.0773 6.67838 68.8513 8.5471 68.8513 10.4956V61.5044C68.8513 63.4529 68.0773 65.3216 66.6994 66.6994C65.3216 68.0773 63.4529 68.8513 61.5044 68.8513H10.4956C8.5471 68.8513 6.67838 68.0773 5.30056 66.6994C3.92274 65.3216 3.14869 63.4529 3.14869 61.5044V10.4956C3.14869 8.5471 3.92274 6.67838 5.30056 5.30056C6.67838 3.92274 8.5471 3.14869 10.4956 3.14869H61.5044ZM61.5044 0H10.4956C7.71201 0 5.04241 1.10579 3.0741 3.0741C1.10579 5.04241 0 7.71201 0 10.4956V61.5044C0 64.288 1.10579 66.9576 3.0741 68.9259C5.04241 70.8942 7.71201 72 10.4956 72H61.5044C64.288 72 66.9576 70.8942 68.9259 68.9259C70.8942 66.9576 72 64.288 72 61.5044V10.4956C72 7.71201 70.8942 5.04241 68.9259 3.0741C66.9576 1.10579 64.288 0 61.5044 0Z" fill="#454B57"/>
<path id="path0 fill" d="M27.0262 62.9209C28.2047 62.9209 29.3716 62.6888 30.4604 62.2378C31.5491 61.7868 32.5384 61.1258 33.3717 60.2926C34.2049 59.4593 34.8659 58.47 35.3169 57.3813C35.7679 56.2925 36 55.1256 36 53.9471V44.9734H27.0262C24.6463 44.9734 22.3638 45.9188 20.6808 47.6017C18.9979 49.2847 18.0525 51.5672 18.0525 53.9471C18.0525 56.3271 18.9979 58.6096 20.6808 60.2926C22.3638 61.9755 24.6463 62.9209 27.0262 62.9209Z" fill="#0ACF83"/>
<path id="path1 fill" d="M18.0525 36C18.0525 33.62 18.9979 31.3375 20.6808 29.6546C22.3638 27.9717 24.6463 27.0262 27.0262 27.0262H36V44.9738H27.0262C24.6463 44.9738 22.3638 44.0283 20.6808 42.3454C18.9979 40.6625 18.0525 38.38 18.0525 36Z" fill="#A259FF"/>
<path id="path1 fill_2" d="M18.0525 18.0523C18.0525 15.6723 18.9979 13.3898 20.6808 11.7068C22.3638 10.0239 24.6463 9.07849 27.0262 9.07849H36V27.026H27.0262C24.6463 27.026 22.3638 26.0806 20.6808 24.3977C18.9979 22.7147 18.0525 20.4322 18.0525 18.0523Z" fill="#F24E1E"/>
<path id="path2 fill" d="M35.9999 9.13098H44.9736C47.3536 9.13098 49.6361 10.0764 51.319 11.7593C53.0019 13.4422 53.9474 15.7248 53.9474 18.1047C53.9474 20.4847 53.0019 22.7672 51.319 24.4501C49.6361 26.1331 47.3536 27.0785 44.9736 27.0785H35.9999V9.13098Z" fill="#FF7262"/>
<path id="path3 fill" d="M53.9474 36C53.9474 37.7748 53.4211 39.5098 52.4351 40.9856C51.449 42.4613 50.0475 43.6115 48.4078 44.2907C46.768 44.9699 44.9637 45.1476 43.2229 44.8013C41.4822 44.4551 39.8832 43.6004 38.6282 42.3454C37.3732 41.0904 36.5186 39.4914 36.1723 37.7507C35.8261 36.01 36.0038 34.2056 36.683 32.5659C37.3622 30.9262 38.5124 29.5246 39.9881 28.5386C41.4638 27.5525 43.1988 27.0262 44.9736 27.0262C47.3536 27.0262 49.6361 27.9717 51.319 29.6546C53.002 31.3375 53.9474 33.62 53.9474 36Z" fill="#1ABCFE"/>
</g>
</svg>
