<svg width="44" height="45" viewBox="0 0 44 45" fill="none" xmlns="http://www.w3.org/2000/svg">
<path id="Vector" d="M41.9048 10.9762V26.6905H37.7143V13.0714L27.2381 5.7381L16.7619 13.0714V16.2143H12.5714V10.9762L27.2381 0.5L41.9048 10.9762ZM30.381 12.0238H28.2857V14.119H30.381V12.0238ZM26.1905 12.0238H24.0952V14.119H26.1905V12.0238ZM30.381 16.2143H28.2857V18.3095H30.381V16.2143ZM26.1905 16.2143H24.0952V18.3095H26.1905V16.2143ZM37.7143 30.881H33.5238C33.5238 28.3667 31.9524 26.1038 29.6057 25.2238L16.699 20.4048H0V43.4524H12.5714V40.4352L27.2381 44.5L44 39.2619V37.1667C44 33.6886 41.1924 30.881 37.7143 30.881ZM4.19048 39.2619V24.5952H8.38095V39.2619H4.19048ZM27.1752 40.121L12.5714 36.0771V24.5952H15.9448L28.139 29.1419C28.8514 29.4143 29.3333 30.1057 29.3333 30.881C29.3333 30.881 25.1638 30.7762 24.5143 30.5667L19.5276 28.9114L18.2076 32.8924L23.1943 34.5476C24.2629 34.9038 25.3733 35.0924 26.5048 35.0924H37.7143C38.5314 35.0924 39.2648 35.5743 39.6 36.2657L27.1752 40.121Z" fill="black"/>
</svg>
