<svg width="31" height="30" viewBox="0 0 31 30" fill="none" xmlns="http://www.w3.org/2000/svg">
<g id="Group 9">
<path id="Vector" d="M30.5 26.25C30.5 28.3125 28.8125 30 26.75 30H4.25C2.1875 30 0.5 28.3125 0.5 26.25V3.75C0.5 1.6875 2.1875 0 4.25 0H26.75C28.8125 0 30.5 1.6875 30.5 3.75V26.25Z" fill="url(#paint0_linear_192_860)"/>
<g id="Group">
<g id="Group_2">
<path id="Vector_2" d="M20.6562 26.25H10.3438C6.98375 26.25 4.25 23.5165 4.25 20.1562V9.84375C4.25 6.48375 6.98375 3.75 10.3438 3.75H20.6562C24.0165 3.75 26.75 6.48375 26.75 9.84375V20.1562C26.75 23.5165 24.0165 26.25 20.6562 26.25ZM10.3438 5.625C8.01758 5.625 6.125 7.51758 6.125 9.84375V20.1562C6.125 22.4824 8.01758 24.375 10.3438 24.375H20.6562C22.9824 24.375 24.875 22.4824 24.875 20.1562V9.84375C24.875 7.51758 22.9824 5.625 20.6562 5.625H10.3438Z" fill="white"/>
</g>
<g id="Group_3">
<path id="Vector_3" d="M15.5 20.625C12.3983 20.625 9.875 18.1015 9.875 15C9.875 11.8983 12.3983 9.375 15.5 9.375C18.6015 9.375 21.125 11.8983 21.125 15C21.125 18.1015 18.6015 20.625 15.5 20.625ZM15.5 11.25C13.4323 11.25 11.75 12.9323 11.75 15C11.75 17.0677 13.4323 18.75 15.5 18.75C17.5677 18.75 19.25 17.0677 19.25 15C19.25 12.9323 17.5677 11.25 15.5 11.25Z" fill="white"/>
</g>
<g id="Group_4">
<path id="Vector_4" d="M21.4766 10.3125C22.1885 10.3125 22.7656 9.73537 22.7656 9.02344C22.7656 8.31151 22.1885 7.73438 21.4766 7.73438C20.7646 7.73438 20.1875 8.31151 20.1875 9.02344C20.1875 9.73537 20.7646 10.3125 21.4766 10.3125Z" fill="white"/>
</g>
</g>
</g>
<defs>
<linearGradient id="paint0_linear_192_860" x1="4.36433" y1="30.9034" x2="26.6356" y2="-0.903375" gradientUnits="userSpaceOnUse">
<stop stop-color="#FFB900"/>
<stop offset="1" stop-color="#9100EB"/>
</linearGradient>
</defs>
</svg>
