<svg width="73" height="72" viewBox="0 0 73 72" fill="none" xmlns="http://www.w3.org/2000/svg">
<g id="Group 5">
<path id="Vector" d="M72.1001 63C72.1001 67.95 68.0501 72 63.1001 72H9.1001C4.1501 72 0.100098 67.95 0.100098 63V9C0.100098 4.05 4.1501 0 9.1001 0H63.1001C68.0501 0 72.1001 4.05 72.1001 9V63Z" fill="url(#paint0_linear_192_759)"/>
<g id="Group">
<g id="Group_2">
<path id="Vector_2" d="M48.4751 63H23.7251C15.6611 63 9.1001 56.4396 9.1001 48.375V23.625C9.1001 15.561 15.6611 9 23.7251 9H48.4751C56.5397 9 63.1001 15.561 63.1001 23.625V48.375C63.1001 56.4396 56.5397 63 48.4751 63ZM23.7251 13.5C18.1423 13.5 13.6001 18.0422 13.6001 23.625V48.375C13.6001 53.9578 18.1423 58.5 23.7251 58.5H48.4751C54.0579 58.5 58.6001 53.9578 58.6001 48.375V23.625C58.6001 18.0422 54.0579 13.5 48.4751 13.5H23.7251Z" fill="white"/>
</g>
<g id="Group_3">
<path id="Vector_3" d="M36.1001 49.5C28.656 49.5 22.6001 43.4436 22.6001 36C22.6001 28.5559 28.656 22.5 36.1001 22.5C43.5437 22.5 49.6001 28.5559 49.6001 36C49.6001 43.4436 43.5437 49.5 36.1001 49.5ZM36.1001 27C31.1377 27 27.1001 31.0376 27.1001 36C27.1001 40.9624 31.1377 45 36.1001 45C41.0625 45 45.1001 40.9624 45.1001 36C45.1001 31.0376 41.0625 27 36.1001 27Z" fill="white"/>
</g>
<g id="Group_4">
<path id="Vector_4" d="M50.4438 24.75C52.1525 24.75 53.5376 23.3649 53.5376 21.6562C53.5376 19.9476 52.1525 18.5625 50.4438 18.5625C48.7352 18.5625 47.3501 19.9476 47.3501 21.6562C47.3501 23.3649 48.7352 24.75 50.4438 24.75Z" fill="white"/>
</g>
</g>
</g>
<defs>
<linearGradient id="paint0_linear_192_759" x1="9.37448" y1="74.1682" x2="62.8257" y2="-2.1681" gradientUnits="userSpaceOnUse">
<stop stop-color="#FFB900"/>
<stop offset="1" stop-color="#9100EB"/>
</linearGradient>
</defs>
</svg>
