<svg width="48" height="41" viewBox="0 0 48 41" fill="none" xmlns="http://www.w3.org/2000/svg">
<g id="Layer_5">
<g id="Group">
<path id="Vector" d="M28.2576 35.7935V34.5315H19.7436V35.7935C19.7436 37.1885 18.6146 38.3165 17.2216 38.3165H15.1416V40.8375H32.8586V38.3165H30.7796C29.3876 38.3165 28.2576 37.1885 28.2576 35.7935Z" fill="#241F20"/>
<path id="Vector_2" d="M45.4006 0.162506H2.62062H2.60062H0.035625V2.55151C0.030625 2.61651 0.015625 2.67951 0.015625 2.74651V29.1335V30.6885V33.2725H2.60062H4.33262H44.4176H45.4006H47.9646V30.8835C47.9696 30.8195 47.9846 30.7545 47.9846 30.6885V30.3565V2.74651V0.162506H45.4006ZM24.0006 31.7345C23.3046 31.7345 22.7396 31.1705 22.7396 30.4725C22.7396 29.7745 23.3046 29.2105 24.0006 29.2105C24.6976 29.2105 25.2626 29.7745 25.2626 30.4725C25.2626 31.1705 24.6976 31.7345 24.0006 31.7345ZM2.62062 27.9105V2.50651H45.4006V27.9105H2.62062Z" fill="#241F20"/>
</g>
</g>
</svg>
