<svg width="166" height="28" viewBox="0 0 166 28" fill="none" xmlns="http://www.w3.org/2000/svg">
<g id="&#229;&#189;&#162;&#231;&#138;&#182;_1">
<g id="Group">
<path id="Vector" fill-rule="evenodd" clip-rule="evenodd" d="M40.5123 20.9265L40.5484 20.8377C40.5484 20.8377 40.4968 20.8676 40.3979 20.921L40.5123 20.9265ZM26.7169 23.7932C26.7169 23.7932 25.0609 23.5146 25.0609 22.0083L25.1572 21.4746L27.4808 20.9265L44.0516 17.0219C44.0516 17.0219 48.0854 8.22408 32.6935 8.43555C17.3034 8.64738 15.2883 18.3986 15.0751 20.414C15.0595 20.5667 15.0491 20.7392 15.0476 20.925L15.2883 21.4479C15.2761 23.6972 16.4481 27.522 26.7486 27.6201C26.7486 27.6201 35.8745 27.3062 38.5308 25.8208L40.5127 20.9265H40.3983C39.2966 21.5215 32.3467 25.1305 26.7169 23.7932ZM26.57 15.4395C26.57 15.4395 27.2419 11.4116 31.7841 11.3466C36.3281 11.2813 35.3444 15.1624 35.3444 15.1624L25.3892 20.1733L26.57 15.4395ZM7.64236 0.379639L0 26.985H10.7234C13.27 18.1168 15.8181 9.24857 18.365 0.379639H7.64236ZM128.036 9.11867L119.842 20.9268L119.411 21.5493L119.335 20.9268L117.885 9.11867H107.946L109.377 20.9268L110.112 26.985H126.2L130.332 20.9268L138.384 9.11867H128.036ZM92.7931 8.52974C76.9829 9.11866 75.9173 18.7822 75.9173 18.7822C75.9173 18.7822 75.5453 19.6948 75.5518 20.9265C75.5702 23.6557 77.4315 27.9485 89.1682 27.5433C98.5507 27.2188 102.995 23.8726 105.095 20.9236C106.816 18.5087 106.963 16.3576 106.963 16.3576C106.963 16.3576 108.602 7.94045 92.7931 8.52974ZM95.8265 16.3576C95.8265 16.3576 95.6403 18.7858 94.5198 20.9265C93.6202 22.6463 92.1186 24.1771 89.6276 24.1212C89.6276 24.1212 86.7988 24.342 86.7959 20.9333C86.7959 20.3043 86.8922 19.5509 87.1192 18.6516L88.1841 15.5052C88.1841 15.5052 89.0365 11.7558 92.7927 11.8208C96.5486 11.8872 96.0888 14.7853 95.8265 16.3576ZM72.1618 9.5784C72.1618 9.5784 67.1595 8.20243 60.2389 8.59397C53.3186 8.98695 48.382 9.90498 48.382 9.90498L45.1115 20.9265L43.3144 26.9846H54.3189L56.1413 20.9265L58.8611 11.8868C58.8611 11.8868 65.3729 10.9529 64.5205 14.3111L62.5942 20.9265L60.8296 26.9846H71.6364L73.4458 20.9265L75.4583 14.1805C75.4583 14.1805 76.7704 10.495 72.1618 9.5784ZM151.782 8.52974C135.973 9.11866 134.906 18.7822 134.906 18.7822C134.906 18.7822 134.534 19.6948 134.542 20.9265C134.558 23.6557 136.42 27.9485 148.157 27.5433C157.541 27.2188 161.984 23.8726 164.084 20.9236C165.805 18.5087 165.952 16.3576 165.952 16.3576C165.952 16.3576 167.592 7.94045 151.782 8.52974ZM154.816 16.3576C154.816 16.3576 154.631 18.7858 153.509 20.9265C152.609 22.6463 151.108 24.1771 148.618 24.1212C148.618 24.1212 145.788 24.342 145.785 20.9333C145.785 20.3043 145.883 19.5509 146.11 18.6516L147.174 15.5052C147.174 15.5052 148.026 11.7558 151.782 11.8208C155.538 11.8872 155.08 14.7853 154.816 16.3576Z" fill="#00387D"/>
</g>
</g>
</svg>
