<svg width="31" height="30" viewBox="0 0 31 30" fill="none" xmlns="http://www.w3.org/2000/svg">
<g id="Group">
<path id="Vector" d="M30.5 28.125C30.5 29.16 29.66 30 28.625 30H2.375C1.34 30 0.5 29.16 0.5 28.125V1.875C0.5 0.84 1.34 0 2.375 0H28.625C29.66 0 30.5 0.84 30.5 1.875V28.125Z" fill="#007BB5"/>
<g id="Group_2">
<path id="Vector_2" d="M10.8125 10.3125H7.0625V23.4375H10.8125V10.3125Z" fill="white"/>
<path id="Vector_3" d="M19.7178 10.3125C17.1013 10.3125 16.6512 11.2669 16.4375 12.1875V10.3125H12.6875V23.4375H16.4375V15.9375C16.4375 14.7216 17.0966 14.0625 18.3125 14.0625C19.4994 14.0625 20.1875 14.7075 20.1875 15.9375V23.4375H23.9375V16.875C23.9375 13.125 23.4491 10.3125 19.7178 10.3125Z" fill="white"/>
<path id="Vector_4" d="M8.9375 9.375C9.97303 9.375 10.8125 8.53553 10.8125 7.5C10.8125 6.46447 9.97303 5.625 8.9375 5.625C7.90197 5.625 7.0625 6.46447 7.0625 7.5C7.0625 8.53553 7.90197 9.375 8.9375 9.375Z" fill="white"/>
</g>
</g>
</svg>
