<svg width="72" height="72" viewBox="0 0 72 72" fill="none" xmlns="http://www.w3.org/2000/svg">
<g id="Group">
<path id="Vector" d="M72 67.5C72 69.984 69.984 72 67.5 72H4.5C2.016 72 0 69.984 0 67.5V4.5C0 2.016 2.016 0 4.5 0H67.5C69.984 0 72 2.016 72 4.5V67.5Z" fill="#007BB5"/>
<g id="Group_2">
<path id="Vector_2" d="M24.75 24.75H15.75V56.25H24.75V24.75Z" fill="white"/>
<path id="Vector_3" d="M46.1228 24.75C39.843 24.75 38.763 27.0405 38.25 29.25V24.75H29.25V56.25H38.25V38.25C38.25 35.3317 39.8317 33.75 42.75 33.75C45.5985 33.75 47.25 35.298 47.25 38.25V56.25H56.25V40.5C56.25 31.5 55.0778 24.75 46.1228 24.75Z" fill="white"/>
<path id="Vector_4" d="M20.25 22.5C22.7353 22.5 24.75 20.4853 24.75 18C24.75 15.5147 22.7353 13.5 20.25 13.5C17.7647 13.5 15.75 15.5147 15.75 18C15.75 20.4853 17.7647 22.5 20.25 22.5Z" fill="white"/>
</g>
</g>
</svg>
