<svg width="20" height="15" viewBox="0 0 20 15" fill="none" xmlns="http://www.w3.org/2000/svg">
<path id="Vector" d="M20 12.3457V1.76367C20 0.787772 19.2122 0 18.2363 0H1.76367C0.787772 0 0 0.787772 0 1.76367V12.3457C0 13.3216 0.787772 14.1093 1.76367 14.1093H18.2363C19.2122 14.1093 20 13.3216 20 12.3457ZM18.4597 1.63433C18.8477 2.02234 18.6361 2.4221 18.4245 2.62199L13.6508 6.99588L18.2363 11.7695C18.3774 11.9342 18.4715 12.1928 18.3069 12.3692C18.154 12.5573 17.8013 12.5456 17.6484 12.428L12.5103 8.04233L9.99412 10.3351L7.48971 8.04233L2.35156 12.428C2.19871 12.5456 1.84597 12.5573 1.69312 12.3692C1.52851 12.1928 1.62257 11.9342 1.76367 11.7695L6.34921 6.99588L1.57554 2.62199C1.3639 2.4221 1.15226 2.02234 1.54027 1.63433C1.92828 1.24633 2.32804 1.43445 2.65726 1.71664L9.99412 7.64256L17.3427 1.71664C17.672 1.43445 18.0717 1.24633 18.4597 1.63433Z" fill="#20C6B1"/>
</svg>
