<svg width="152" height="34" viewBox="0 0 152 34" fill="none" xmlns="http://www.w3.org/2000/svg">
<g id="Group 8">
<path id="Vector" d="M152 15.455V12.7816H148.68V8.62595L148.569 8.66009L145.451 9.61425L145.389 9.63295V12.7816H140.468V11.0277C140.468 10.211 140.651 9.58575 141.011 9.16923C141.368 8.75717 141.879 8.54787 142.531 8.54787C143 8.54787 143.486 8.65831 143.974 8.87592L144.096 8.93054V6.11558L144.039 6.09479C143.583 5.93062 142.963 5.84839 142.195 5.84839C141.227 5.84839 140.347 6.05887 139.58 6.47658C138.824 6.88325 138.201 7.49919 137.785 8.2507C137.364 9.00892 137.15 9.8844 137.15 10.8534V12.7819H134.838V15.4553H137.15V26.7166H140.468V15.455H145.389V22.6114C145.389 25.5588 146.779 27.0527 149.521 27.0527C149.995 27.0499 150.467 26.9974 150.93 26.8959C151.423 26.79 151.759 26.684 151.956 26.5709L152 26.545V23.847L151.865 23.9364C151.685 24.0566 151.461 24.1546 151.198 24.2273C150.934 24.3015 150.713 24.339 150.542 24.339C149.9 24.339 149.425 24.1659 149.13 23.8242C148.832 23.4798 148.68 22.8768 148.68 22.0337V15.455H152ZM127.428 24.3392C126.224 24.3392 125.274 23.9397 124.605 23.1532C123.932 22.3624 123.59 21.2354 123.59 19.803C123.59 18.3255 123.932 17.1691 124.605 16.3643C125.275 15.5651 126.215 15.1593 127.401 15.1593C128.552 15.1593 129.467 15.5467 130.123 16.3117C130.783 17.0804 131.117 18.2275 131.117 19.7222C131.117 21.2354 130.803 22.398 130.182 23.1755C129.566 23.9474 128.64 24.3392 127.428 24.3392ZM127.576 12.4458C125.278 12.4458 123.453 13.1192 122.152 14.4471C120.851 15.7753 120.192 17.613 120.192 19.9102C120.192 22.0919 120.836 23.8467 122.105 25.1254C123.375 26.4043 125.102 27.0521 127.24 27.0521C129.467 27.0521 131.256 26.3696 132.557 25.0232C133.857 23.6784 134.516 21.858 134.516 19.6142C134.516 17.3986 133.898 15.6307 132.678 14.3607C131.457 13.0901 129.74 12.4458 127.576 12.4458ZM114.842 12.4458C113.279 12.4458 111.986 12.8457 110.998 13.6339C110.005 14.4269 109.501 15.4671 109.501 16.7256C109.501 17.3796 109.609 17.9606 109.824 18.4534C110.039 18.948 110.372 19.3832 110.815 19.7487C111.255 20.1112 111.933 20.4909 112.832 20.8768C113.588 21.1879 114.152 21.4512 114.51 21.6585C114.86 21.8618 115.108 22.0661 115.248 22.265C115.385 22.4594 115.454 22.726 115.454 23.0547C115.454 23.991 114.753 24.4464 113.31 24.4464C112.775 24.4464 112.165 24.3348 111.496 24.1145C110.832 23.8975 110.206 23.5798 109.638 23.1725L109.501 23.074V26.2683L109.551 26.2921C110.021 26.5088 110.613 26.6914 111.311 26.8354C112.007 26.9791 112.639 27.0524 113.189 27.0524C114.885 27.0524 116.251 26.6507 117.247 25.8578C118.251 25.0592 118.759 23.9949 118.759 22.6925C118.759 21.7535 118.485 20.9477 117.946 20.2982C117.41 19.654 116.481 19.0623 115.184 18.5395C114.151 18.1248 113.489 17.7807 113.216 17.5165C112.953 17.2612 112.819 16.9002 112.819 16.4433C112.819 16.0377 112.984 15.7132 113.323 15.4502C113.664 15.186 114.139 15.0515 114.735 15.0515C115.288 15.0515 115.853 15.1388 116.416 15.3098C116.978 15.4811 117.472 15.7106 117.884 15.9908L118.019 16.0835V13.053L117.967 13.0307C117.587 12.8674 117.086 12.7279 116.477 12.6151C115.87 12.5028 115.32 12.4458 114.842 12.4458ZM100.85 24.3392C99.646 24.3392 98.6963 23.9397 98.0271 23.1532C97.3538 22.3624 97.0133 21.2354 97.0133 19.803C97.0133 18.3255 97.3541 17.1691 98.028 16.3643C98.6969 15.5651 99.6371 15.1593 100.823 15.1593C101.974 15.1593 102.89 15.5467 103.546 16.3117C104.205 17.0804 104.54 18.2275 104.54 19.7222C104.54 21.2354 104.225 22.398 103.605 23.1755C102.988 23.9474 102.062 24.3392 100.85 24.3392ZM100.998 12.4458C98.6998 12.4458 96.8747 13.1192 95.5743 14.4471C94.274 15.7753 93.6141 17.613 93.6141 19.9102C93.6141 22.0928 94.2583 23.8467 95.5274 25.1254C96.7969 26.4043 98.5244 27.0521 100.662 27.0521C102.889 27.0521 104.678 26.3696 105.979 25.0232C107.279 23.6784 107.939 21.858 107.939 19.6142C107.939 17.3986 107.32 15.6307 106.1 14.3607C104.879 13.0901 103.162 12.4458 100.998 12.4458ZM88.577 15.1949V12.7816H85.2992V26.716H88.5767V19.5878C88.5767 18.3756 88.8516 17.3799 89.394 16.6279C89.9293 15.8848 90.643 15.5081 91.5137 15.5081C91.8091 15.5081 92.1404 15.5568 92.4993 15.6533C92.8547 15.7489 93.1121 15.8528 93.2638 15.962L93.4015 16.0621V12.7579L93.3481 12.735C93.0432 12.6053 92.6112 12.54 92.065 12.54C91.2412 12.54 90.504 12.8045 89.8729 13.3255C89.3186 13.7836 88.9178 14.4117 88.6117 15.1949H88.577ZM79.4294 12.4458C77.9257 12.4458 76.5841 12.7685 75.4433 13.4042C74.3003 14.041 73.4159 14.9509 72.8144 16.1072C72.2156 17.2612 71.9116 18.609 71.9116 20.112C71.9116 21.4284 72.2064 22.6367 72.7889 23.7013C73.372 24.7679 74.1973 25.6025 75.2417 26.1814C76.2849 26.7594 77.4905 27.0524 78.825 27.0524C80.3827 27.0524 81.7127 26.741 82.7793 26.127L82.8221 26.1021V23.0992L82.6846 23.1998C82.194 23.5554 81.6536 23.8367 81.0809 24.0347C80.5014 24.2368 79.9736 24.339 79.5104 24.339C78.2241 24.339 77.1918 23.9367 76.4422 23.1434C75.6911 22.3487 75.3103 21.2333 75.3103 19.8294C75.3103 18.4169 75.7075 17.2727 76.49 16.4281C77.2705 15.5865 78.3048 15.1596 79.5645 15.1596C80.6418 15.1596 81.6916 15.5244 82.6846 16.245L82.8221 16.3447V13.1806L82.7778 13.1557C82.4038 12.9464 81.8943 12.7736 81.2614 12.6427C80.6314 12.512 80.0151 12.4458 79.4294 12.4458ZM69.6542 12.7816H66.3761V26.716H69.6542V12.7816ZM68.0487 6.84559C67.5093 6.84559 67.0387 7.02936 66.6522 7.39303C66.2639 7.75819 66.0668 8.21775 66.0668 8.75984C66.0668 9.29362 66.2615 9.74458 66.6457 10.0999C67.0277 10.4541 67.4998 10.6337 68.0487 10.6337C68.5973 10.6337 69.0711 10.4541 69.4577 10.1005C69.8466 9.74458 70.044 9.29362 70.044 8.75984C70.044 8.23675 69.8519 7.78164 69.4737 7.40787C69.0958 7.0347 68.616 6.84559 68.0487 6.84559ZM59.8704 11.7538V26.7157H63.2156V7.2722H58.5858L52.7008 21.7143L46.9902 7.2722H42.1719V26.716H45.3155V11.7523H45.4235L51.454 26.716H53.826L59.7623 11.7535L59.8704 11.7538Z" fill="#706D6E"/>
<path id="Vector_2" d="M15.4194 16.194H0V0.774658H15.4194V16.194Z" fill="#F1511B"/>
<path id="Vector_3" d="M32.4445 16.194H17.0251V0.774658H32.4445V16.194Z" fill="#80CC28"/>
<path id="Vector_4" d="M15.4191 33.2251H0V17.8057H15.4191V33.2251Z" fill="#00ADEF"/>
<path id="Vector_5" d="M32.4445 33.2251H17.0251V17.8057H32.4445V33.2251Z" fill="#FBBC09"/>
</g>
</svg>
