<svg width="153" height="24" viewBox="0 0 153 24" fill="none" xmlns="http://www.w3.org/2000/svg">
<path id="Vector" d="M145.263 10.541V13.8082H147.505V17.0502C147.511 17.2981 147.501 17.5634 147.467 17.7914L147.448 17.9019C147.444 17.9274 147.44 17.9529 147.435 17.9781L147.417 18.0577C147.413 18.0714 147.409 18.0851 147.405 18.0987L147.379 18.1829C147.178 18.7797 146.571 19.5362 145.207 19.5362C143.754 19.5362 143.171 18.668 143.012 18.058L142.993 17.9781L142.979 17.9019C142.938 17.6522 142.921 17.3397 142.921 17.0502V6.8115C142.921 6.48953 142.94 6.14063 142.997 5.85661L143.036 5.68369L143.045 5.64697L143.065 5.57107L143.078 5.53159L143.106 5.45018C143.313 4.88459 143.861 4.13109 145.195 4.13109C146.225 4.13109 146.779 4.56079 147.075 5.00487L147.128 5.08812C147.144 5.11566 147.16 5.14351 147.174 5.17136L147.216 5.25339L147.252 5.33418L147.284 5.41284L147.311 5.48843L147.334 5.56127L147.353 5.62983L147.369 5.6941L147.381 5.75286C147.387 5.78224 147.392 5.81346 147.397 5.8459L147.41 5.94598L147.416 5.99801L147.429 6.15532L147.438 6.3059L147.446 6.51157L147.448 6.61715V7.86034H152.956L152.958 7.08633L152.961 6.80966L152.96 6.59512L152.955 6.34507L152.951 6.21072L152.941 6.00107L152.927 5.78622L152.915 5.64268C152.542 1.8608 149.766 0.405519 146.389 0.152414L146.163 0.137111L145.935 0.125787C145.82 0.120841 145.706 0.117168 145.591 0.11477L145.36 0.111709C145.321 0.111097 145.282 0.111097 145.243 0.111097L145.011 0.112627L144.895 0.11477L144.665 0.121197L144.437 0.131296L144.21 0.144763L143.986 0.161596C143.911 0.168023 143.837 0.174756 143.763 0.182407L143.542 0.206891C143.505 0.211176 143.469 0.215461 143.432 0.220358L143.215 0.250351C142.71 0.324721 142.225 0.430921 141.765 0.572624L141.569 0.63567C139.435 1.35275 137.884 2.8775 137.565 5.64268L137.532 5.94965L137.51 6.18746L137.489 6.43658L137.471 6.68449C137.462 6.84669 137.455 6.99911 137.455 7.1252L137.456 16.6642L137.457 16.7827L137.462 16.9626L137.467 17.0887L137.475 17.2234L137.485 17.37L137.497 17.5313L137.522 17.8083L137.542 18.0207C137.851 21.5354 140.452 23.0987 143.635 23.4675L143.858 23.4913C144.231 23.5281 144.611 23.5483 144.996 23.5544L145.228 23.5559L145.461 23.5544C145.843 23.549 146.224 23.528 146.604 23.4913L146.829 23.4675C150.021 23.0987 152.605 21.5354 152.92 18.0207L152.945 17.7109L152.964 17.4486L152.981 17.1548L152.991 16.9017L153 16.5436V10.5407H145.263L145.263 10.541ZM107.281 0.713714H101.75V17.2858C101.758 17.5747 101.75 17.8992 101.701 18.137L101.685 18.2092L101.665 18.2857C101.657 18.3128 101.649 18.3397 101.64 18.3665L101.611 18.4507C101.402 19.0205 100.871 19.7639 99.599 19.7639C98.4064 19.7639 97.8619 19.0931 97.6336 18.5373L97.6004 18.4507C97.5953 18.4366 97.5903 18.4226 97.5855 18.4084L97.5595 18.3258L97.538 18.2468C97.5348 18.2343 97.5317 18.2218 97.5287 18.2092L97.5135 18.137C97.4582 17.8992 97.451 17.5747 97.4582 17.2861V0.713102H91.9281V16.7717L91.9269 16.9005L91.929 17.1264L91.9368 17.4584L91.9517 17.8624L91.9624 18.0653L91.9696 18.1734L91.9765 18.2526C92.2475 21.2235 93.9494 22.77 96.3528 23.417L96.5575 23.4696C97.0205 23.5809 97.4899 23.6618 97.9629 23.7117L98.1897 23.7343L98.4189 23.7533L98.6505 23.7686C98.7671 23.7757 98.8842 23.7809 99.0023 23.7852L99.2395 23.7919L99.4786 23.7949C99.5186 23.7956 99.559 23.7956 99.599 23.7956L99.8399 23.794L99.9594 23.7919L100.197 23.7852C100.315 23.7812 100.433 23.7757 100.55 23.7689L100.781 23.7536L101.011 23.7343L101.238 23.7117C104.473 23.3597 106.9 21.8512 107.234 18.2526L107.239 18.2168L107.248 18.1226L107.261 17.9347L107.273 17.707L107.28 17.5426L107.287 17.2904L107.288 17.1264L107.288 16.9724L107.284 16.8335L107.281 16.7717V0.713714ZM56.4544 0.713714L53.695 18.2245L50.9371 0.713714H42.0141L41.5408 23.1149H47.0075L47.1555 2.37741L50.9168 23.1149H56.4631L60.2277 2.37741L60.3763 23.1149H65.8568L65.3676 0.713714H56.4544ZM23.4168 0.713714L19.3653 23.1149H25.2734L28.3269 2.37741L31.3068 23.1149H37.174L33.1392 0.713714H23.4168ZM126.614 18.7494L121.463 0.713714H113.346V22.8814H118.716L118.404 4.26882L123.936 22.8814H131.72V0.713714H126.316L126.614 18.7494ZM76.9475 6.5437C76.8504 6.10115 76.8785 5.63136 76.9287 5.3856C76.943 5.32041 76.9598 5.25461 76.9795 5.18911L77.0117 5.09087C77.2299 4.46959 77.7406 3.88625 78.9111 3.88625C80.1742 3.88625 80.915 4.693 80.915 5.90313V7.27302H86.3074V5.71185C86.3074 2.18827 84.0557 0.832768 81.6499 0.357775L81.4517 0.320743L81.2533 0.287383L81.0546 0.257696L80.8562 0.231682L80.6578 0.208728L80.4602 0.18914C80.3945 0.183019 80.3287 0.17751 80.2633 0.172613L80.0679 0.158841L79.8736 0.147823L79.6809 0.139254L79.4899 0.133133L79.3017 0.128848L79.0232 0.126706L78.9006 0.127318L78.6565 0.13099C78.6159 0.131602 78.5758 0.132827 78.5352 0.134051L78.2943 0.143232C78.2145 0.146599 78.135 0.150884 78.0559 0.155475L77.8198 0.172307C74.5297 0.430003 71.9627 1.81397 71.4491 5.05935C71.2972 6.0479 71.2596 6.92504 71.5014 8.04458C71.8821 9.88426 73.3786 11.1936 75.0963 12.2914L75.3622 12.4588L75.4961 12.5414L75.7659 12.7039L76.0373 12.8643L76.3098 13.0219L76.7186 13.2545L77.7926 13.8574L78.0538 14.0056L78.3102 14.1531L78.5615 14.3006L78.8068 14.4481C79.9776 15.1618 80.9156 15.8853 81.253 16.7505C81.4398 17.2647 81.3992 17.9123 81.3089 18.3258L81.2934 18.3925C81.2709 18.4931 81.2423 18.5922 81.2076 18.6891L81.17 18.7861C80.9213 19.3804 80.3783 19.8873 79.1851 19.8873C77.8243 19.8873 77.0049 19.086 77.0049 17.878L77.0031 15.7283H71.1989V17.4373C71.1989 21.4481 73.6837 23.1905 76.7957 23.7077L77.0273 23.7438C77.1824 23.7665 77.339 23.7861 77.4965 23.8029L77.734 23.8262C78.0122 23.8506 78.2937 23.8672 78.577 23.8757L78.8206 23.8813L78.9428 23.8825L79.065 23.8831C79.1463 23.8831 79.2276 23.8825 79.3083 23.8813L79.5497 23.8757L79.6692 23.8718L79.908 23.8607C79.9869 23.8568 80.0658 23.8516 80.1441 23.8464L80.3781 23.828C80.5318 23.8144 80.6853 23.7981 80.8385 23.779L81.0651 23.749L81.2889 23.7148C81.363 23.7025 81.4365 23.6903 81.5097 23.6765L81.7279 23.6343C84.362 23.0938 86.3221 21.6281 86.7153 18.81C86.7697 18.3895 86.8032 18.0014 86.8211 17.6464L86.8307 17.415C86.8322 17.377 86.8331 17.3397 86.8339 17.3027L86.8375 17.0863V16.8797L86.8345 16.6832L86.828 16.4968L86.819 16.3211C86.8174 16.2931 86.8157 16.265 86.8139 16.237L86.802 16.0766L86.7882 15.9267L86.7733 15.7874L86.7494 15.5986L86.7246 15.4339L86.692 15.2524L86.6771 15.178C86.2972 13.2273 84.6298 11.8494 82.7774 10.7152L82.5114 10.5548L82.2436 10.3975L81.975 10.243L81.5716 10.0165L81.0367 9.72236L80.1237 9.22503L79.7484 9.01691L79.6259 8.94805L79.3856 8.81094L79.152 8.67413C78.0027 7.99163 77.134 7.32138 76.9475 6.5437ZM5.81371 6.48831C5.7145 6.06504 5.73004 5.61973 5.78084 5.36081L5.80176 5.2641L5.82567 5.168C6.00795 4.49529 6.5061 3.80209 7.79345 3.80209C9.07274 3.80209 9.82609 4.61618 9.82609 5.83672V7.22314H15.2821V5.64972C15.2821 2.28743 13.2396 0.875309 10.9575 0.322885L10.7584 0.276977C10.5922 0.240523 10.4251 0.208174 10.2573 0.179959L10.0562 0.148129L9.85507 0.119666L9.65396 0.0948762L9.45374 0.0734525C9.38715 0.0667364 9.32051 0.0605131 9.25383 0.0547833L9.05541 0.0394807L8.85818 0.0266265L8.66215 0.0165268L8.46791 0.00918156L8.27636 0.00397868L7.99247 0H7.89954C7.81766 0 7.73608 0.000612104 7.6551 0.00183631L7.41245 0.0070392C7.25168 0.011936 7.0921 0.0192813 6.93432 0.0284629L6.69825 0.0449897C6.6594 0.0480502 6.62025 0.0511107 6.5814 0.0547833L6.34921 0.0768191C6.27263 0.0846675 6.19612 0.0933395 6.11971 0.102834L5.8926 0.132827C5.70494 0.159453 5.51996 0.190058 5.33798 0.225254L5.12133 0.269326L4.90766 0.317682L4.69759 0.370323C4.62796 0.388686 4.55893 0.407355 4.4908 0.427249L4.2873 0.488459C2.17009 1.15504 0.643976 2.55309 0.259084 4.97886C0.100108 5.98301 0.0726154 6.86628 0.302415 7.99837C0.707029 9.95404 2.35656 11.3166 4.20213 12.4612L4.47347 12.6271L4.61003 12.7091L4.88406 12.8707L5.29704 13.1091L5.84688 13.4195L6.65731 13.8746L7.05116 14.0992L7.43396 14.3226L7.68199 14.472C7.72263 14.4968 7.76327 14.5216 7.80331 14.5467L8.04118 14.6963C9.05421 15.3464 9.8479 16.0157 10.1539 16.8007C10.3547 17.3109 10.3078 17.9588 10.2131 18.3855L10.1969 18.4546C10.1733 18.5541 10.144 18.652 10.1091 18.7478L10.0711 18.8442C9.81652 19.449 9.26937 19.9678 8.06061 19.9678C6.69436 19.9678 5.87706 19.1527 5.87706 17.9282L5.8693 15.7727H0V17.4854C0 22.2935 3.53963 23.8739 7.45966 23.9927L7.705 23.9982L7.95123 24L8.19478 23.9985C8.3161 23.9966 8.43683 23.9936 8.55636 23.9893L8.79543 23.9783C8.91376 23.9721 9.0318 23.9642 9.14894 23.955L9.38203 23.9348L9.61212 23.9109C9.68863 23.9024 9.76453 23.8932 9.84043 23.8834L10.0654 23.8513C10.1402 23.8399 10.2146 23.828 10.2881 23.8155L10.5077 23.7757C13.2357 23.2523 15.2687 21.7707 15.678 18.8721C15.7304 18.491 15.7675 18.1079 15.7895 17.7238L15.8003 17.4942L15.8068 17.2748C15.8084 17.2047 15.8094 17.1346 15.8098 17.0646L15.8089 16.8641L15.8051 16.6734L15.7985 16.4928L15.7895 16.3218L15.7785 16.1608L15.7659 16.0099L15.7444 15.8024L15.7214 15.6181L15.6903 15.4085L15.655 15.205C15.2764 13.2775 13.6589 11.9057 11.8387 10.7779L11.5709 10.6148C11.5262 10.5878 11.4814 10.561 11.4365 10.5343L11.1654 10.3758L10.8938 10.22L10.6219 10.067L10.3499 9.9167L9.15103 9.26481L8.76734 9.05425L8.51841 8.9153L8.27546 8.77696L8.03939 8.63924L7.92434 8.57038L7.70022 8.43327C6.7093 7.81504 5.98195 7.19651 5.81371 6.48831Z" fill="#1428A0"/>
</svg>
