<svg width="42" height="42" viewBox="0 0 42 42" fill="none" xmlns="http://www.w3.org/2000/svg">
<path id="Vector" d="M42 1.86754C41.9309 2.01782 41.8359 2.15473 41.7192 2.27193L15.1675 28.8162L22.6662 41.3161C22.799 41.5384 22.9908 41.7196 23.2202 41.8398C23.4496 41.9599 23.7078 42.0143 23.9662 41.9968C24.2246 41.9794 24.4732 41.8908 24.6844 41.7409C24.8956 41.5911 25.0612 41.3857 25.163 41.1476L42 1.86754ZM13.1847 26.8335L0.683973 19.3297C0.461653 19.1969 0.280399 19.0051 0.160253 18.7757C0.0401067 18.5463 -0.0142517 18.2881 0.00318788 18.0298C0.0206275 17.7714 0.109186 17.5229 0.259071 17.3117C0.408956 17.1005 0.61433 16.9349 0.852484 16.8331L40.1436 0C39.9911 0.0693324 39.8522 0.165393 39.7335 0.283641L13.1847 26.8335Z" fill="white"/>
</svg>
