<svg width="60" height="41" viewBox="0 0 60 41" fill="none" xmlns="http://www.w3.org/2000/svg">
<path id="Vector" d="M0 0V3.72727H35.625V31.6818H24.082C23.2471 28.4787 20.3467 26.0909 16.875 26.0909C13.4033 26.0909 10.5029 28.4787 9.66797 31.6818H7.5V22.3636H3.75V35.4091H9.66797C10.5029 38.6122 13.4033 41 16.875 41C20.3467 41 23.2471 38.6122 24.082 35.4091H39.668C40.5029 38.6122 43.4033 41 46.875 41C50.3467 41 53.2471 38.6122 54.082 35.4091H60V20.2088L59.8828 19.9176L56.1328 8.7358L55.7227 7.45455H39.375V0H0ZM1.875 7.45455V11.1818H18.75V7.45455H1.875ZM39.375 11.1818H53.0273L56.25 20.733V31.6818H54.082C53.2471 28.4787 50.3467 26.0909 46.875 26.0909C43.4033 26.0909 40.5029 28.4787 39.668 31.6818H39.375V11.1818ZM3.75 14.9091V18.6364H15V14.9091H3.75ZM16.875 29.8182C18.9697 29.8182 20.625 31.4634 20.625 33.5455C20.625 35.6275 18.9697 37.2727 16.875 37.2727C14.7803 37.2727 13.125 35.6275 13.125 33.5455C13.125 31.4634 14.7803 29.8182 16.875 29.8182ZM46.875 29.8182C48.9697 29.8182 50.625 31.4634 50.625 33.5455C50.625 35.6275 48.9697 37.2727 46.875 37.2727C44.7803 37.2727 43.125 35.6275 43.125 33.5455C43.125 31.4634 44.7803 29.8182 46.875 29.8182Z" fill="black"/>
</svg>
