<svg width="73" height="72" viewBox="0 0 73 72" fill="none" xmlns="http://www.w3.org/2000/svg">
<g id="g3885">
<path id="rect2987" d="M63.1001 0H9.1001C4.12953 0 0.100098 4.02944 0.100098 9V63C0.100098 67.9706 4.12953 72 9.1001 72H63.1001C68.0707 72 72.1001 67.9706 72.1001 63V9C72.1001 4.02944 68.0707 0 63.1001 0Z" fill="#64A9DC"/>
<path id="path9" d="M59.8799 13.2466L11.1748 32.0323C7.85056 33.366 7.87028 35.2201 10.5689 36.0468L22.7161 39.8382L27.3639 54.0881C27.9289 55.6477 27.6504 56.2663 29.2881 56.2663C30.5521 56.2663 31.1128 55.69 31.8167 55.0024C32.2644 54.5643 34.9222 51.9802 37.89 49.0948L50.5253 58.4304C52.8504 59.7131 54.5292 59.0486 55.1082 56.271L63.4024 17.1857C64.2515 13.7812 62.1044 12.237 59.8799 13.2466ZM24.6224 38.9672L52.0023 21.693C53.3691 20.8641 54.6224 21.3098 53.5934 22.2231L30.1491 43.3759L29.2362 53.1121L24.6224 38.9672Z" fill="white"/>
</g>
</svg>
