<svg width="31" height="30" viewBox="0 0 31 30" fill="none" xmlns="http://www.w3.org/2000/svg">
<g id="Group">
<path id="Dark_Blue" d="M26.75 30H4.25C2.18 30 0.5 28.32 0.5 26.25V3.75C0.5 1.68 2.18 0 4.25 0H26.75C28.82 0 30.5 1.68 30.5 3.75V26.25C30.5 28.32 28.82 30 26.75 30Z" fill="#1DA1F2"/>
<path id="Logo__x2014__FIXED" d="M12.0201 22.6199C19.0926 22.6199 22.9626 16.7549 22.9626 11.6774C22.9626 11.5124 22.9626 11.3474 22.9551 11.1824C23.7051 10.6424 24.3576 9.95988 24.8751 9.18738C24.1851 9.49488 23.4426 9.69738 22.6626 9.79488C23.4576 9.32238 24.0651 8.56488 24.3576 7.66488C23.6151 8.10738 22.7901 8.42238 21.9126 8.59488C21.2076 7.84488 20.2101 7.37988 19.1076 7.37988C16.9851 7.37988 15.2601 9.10488 15.2601 11.2274C15.2601 11.5274 15.2976 11.8199 15.3576 12.1049C12.1626 11.9474 9.32757 10.4099 7.43007 8.08488C7.10007 8.65488 6.91257 9.31488 6.91257 10.0199C6.91257 11.3549 7.59507 12.5324 8.62257 13.2224C7.99257 13.1999 7.40007 13.0274 6.88257 12.7424V12.7949C6.88257 14.6549 8.21007 16.2149 9.96507 16.5674C9.64257 16.6574 9.30507 16.7024 8.95257 16.7024C8.70507 16.7024 8.46507 16.6799 8.23257 16.6349C8.72007 18.1649 10.1451 19.2749 11.8251 19.3049C10.5051 20.3399 8.84757 20.9549 7.04757 20.9549C6.74007 20.9549 6.43257 20.9399 6.13257 20.9024C7.82757 21.9824 9.85257 22.6199 12.0201 22.6199Z" fill="white"/>
</g>
</svg>
