<svg width="161" height="44" viewBox="0 0 161 44" fill="none" xmlns="http://www.w3.org/2000/svg">
<path id="Vector" d="M0 10.72H9.58296L15.1456 24.7599L20.7901 10.72H30.1293L16.0796 44H6.69974L10.5574 35.1999L0 10.72ZM39.8337 10.16C32.6465 10.16 28.0989 16.5201 28.0989 22.8399C28.0989 29.9599 33.0934 35.6001 39.712 35.6001C44.6659 35.6001 46.5337 32.64 46.5337 32.64V34.9601H54.8982V10.72H46.5337V12.92C46.4928 12.92 44.4222 10.16 39.8337 10.16ZM41.6204 17.9599C44.9501 17.9599 46.6554 20.5601 46.6554 22.8799C46.6554 25.3998 44.8284 27.8801 41.6204 27.8801C38.9812 27.8801 36.5854 25.7601 36.5854 23.0001C36.5854 20.1998 38.4941 17.9599 41.6204 17.9599ZM57.7408 34.9598V0H66.471V12.9999C66.471 12.9999 68.5417 10.16 72.8865 10.16C78.2057 10.16 81.3327 14.0801 81.3327 19.6401V34.9601H72.6428V21.7201C72.6428 19.8399 71.7497 17.9998 69.6787 17.9998C67.5672 17.9998 66.471 19.8399 66.471 21.7201V34.9601L57.7408 34.9598ZM96.2346 10.1603C87.9915 10.1603 83.0785 16.3203 83.0785 22.9604C83.0785 30.4803 89.0069 35.6404 96.2752 35.6404C103.3 35.6404 109.431 30.7204 109.431 23.0803C109.431 14.7204 102.975 10.1603 96.2346 10.1603ZM96.3157 18.0005C99.2392 18.0005 101.229 20.4002 101.229 22.9202C101.229 25.0802 99.3612 27.7602 96.3157 27.7602C93.514 27.7602 91.4433 25.5603 91.4433 22.8802C91.4433 20.3603 93.1486 18.0005 96.3157 18.0005ZM123.968 10.1603C115.725 10.1603 110.812 16.3203 110.812 22.9604C110.812 30.4803 116.74 35.6404 124.009 35.6404C131.034 35.6404 137.165 30.7204 137.165 23.0803C137.165 14.7204 130.749 10.1603 123.968 10.1603ZM124.049 18.0005C126.973 18.0005 128.963 20.4002 128.963 22.9202C128.963 25.0802 127.095 27.7602 124.049 27.7602C121.247 27.7602 119.176 25.5603 119.176 22.8802C119.176 20.3603 120.923 18.0005 124.049 18.0005ZM144.067 24.0403C147.275 24.0403 149.874 26.6002 149.874 29.7604C149.874 32.92 147.275 35.4802 144.068 35.4802C140.86 35.4802 138.261 32.9203 138.261 29.7604C138.261 26.6002 140.86 24.0403 144.068 24.0403H144.067ZM151.783 21.9602H141.347L150.605 0H161L151.783 21.9602Z" fill="#5F01D1"/>
</svg>
