<svg width="158" height="36" viewBox="0 0 158 36" fill="none" xmlns="http://www.w3.org/2000/svg">
<g id="Group 7">
<path id="Vector" d="M49.3412 5.86563C49.0518 4.79609 48.4872 3.82105 47.7037 3.0376C46.9202 2.25415 45.9451 1.68963 44.8755 1.40026C40.9598 0.33252 25.2017 0.33252 25.2017 0.33252C25.2017 0.33252 9.44297 0.364922 5.52783 1.43266C4.45833 1.72207 3.48331 2.28662 2.69986 3.07006C1.91641 3.85351 1.35187 4.82853 1.06246 5.89803C-0.121929 12.8553 -0.581427 23.4558 1.09486 30.1344C1.38428 31.2039 1.94882 32.179 2.73226 32.9624C3.51571 33.7459 4.49073 34.3104 5.56023 34.5998C9.47568 35.6676 25.2341 35.6676 25.2341 35.6676C25.2341 35.6676 40.9925 35.6676 44.9079 34.5998C45.9774 34.3104 46.9524 33.7459 47.7359 32.9624C48.5193 32.179 49.0839 31.2039 49.3733 30.1344C50.6222 23.1676 51.0073 12.5736 49.3409 5.86593L49.3412 5.86563Z" fill="#FF0000"/>
<path id="Vector_2" d="M20.186 25.5719L33.2587 18.0002L20.186 10.4282V25.5719Z" fill="white"/>
<path id="Vector_3" d="M151.593 10.5901C153.308 10.5901 154.602 10.9135 155.508 11.5282C156.414 12.1433 157.062 13.1138 157.45 14.4408C157.838 15.7674 158 17.5792 158 19.9091V23.6952H149.684V24.8598L149.814 28.0634C149.91 28.7753 150.072 29.2931 150.331 29.6165C150.59 29.9402 151.011 30.102 151.561 30.102C152.305 30.102 152.823 29.8109 153.082 29.2286C153.373 28.646 153.502 27.6752 153.535 26.3485L157.838 26.6074C157.871 26.8015 157.871 27.0604 157.871 27.3838C157.871 29.4224 157.32 30.9435 156.188 31.9464C155.055 32.9494 153.502 33.4672 151.464 33.4672C149.004 33.4672 147.29 32.6908 146.319 31.17C145.348 29.6489 144.83 27.2542 144.83 24.051V20.1356C144.94 14.6349 145.908 10.6062 151.593 10.5901ZM91.7628 11.0107V27.2221C91.7628 28.193 91.8597 28.9049 92.0862 29.3255C92.5457 30.2251 93.7366 29.9952 94.3837 29.552C94.7573 29.2995 95.0585 28.9538 95.2574 28.5491V11.0104H100.208V33.1111H96.3251L95.9045 30.393H95.8076C94.7399 32.4315 93.154 33.4669 91.0509 33.4669C87.8137 33.4588 87.0216 31.1265 86.833 28.7577L86.8207 28.5908C86.7974 28.232 86.7837 27.8727 86.7797 27.5131V11.0107H91.7625H91.7628ZM117.294 11.0107V27.2221C117.294 28.193 117.39 28.9049 117.617 29.3255C118.077 30.2251 119.267 29.9952 119.914 29.552C120.288 29.2995 120.589 28.9538 120.788 28.5491V11.0104H125.739V33.1111H121.856L121.435 30.393H121.338C120.271 32.4315 118.685 33.4669 116.582 33.4669C113.344 33.4588 112.552 31.1265 112.364 28.7577L112.351 28.5908C112.328 28.232 112.314 27.8727 112.31 27.5131V11.0107H117.294ZM77.3956 10.5901C79.0136 10.5901 80.3402 10.9135 81.311 11.5931C82.2816 12.2726 83.0259 13.3082 83.4789 14.7318C83.9319 16.1556 84.1584 18.0646 84.1584 20.4269V23.6301C84.1584 25.9924 83.9319 27.8693 83.4789 29.2928C83.0259 30.717 82.314 31.7523 81.311 32.4318C80.3081 33.079 78.9487 33.4348 77.2663 33.4348C75.5187 33.4672 74.1597 33.1114 73.1567 32.4642C72.1538 31.7847 71.4416 30.7491 71.0213 29.3255C70.6003 27.9017 70.4062 26.0248 70.4062 23.6628V20.459C70.4062 18.0967 70.6327 16.1553 71.1181 14.7315C71.6036 13.2755 72.3476 12.2399 73.3832 11.5931C74.4186 10.9456 75.7452 10.5898 77.3956 10.5898V10.5901ZM133.505 1.72388V13.3727H133.537C133.99 12.5315 134.573 11.852 135.382 11.3341C136.137 10.8261 137.027 10.5557 137.938 10.5577C139.135 10.5577 140.041 10.8811 140.721 11.4958C141.4 12.1433 141.886 13.1462 142.177 14.5377C142.459 15.8856 142.62 17.7498 142.629 20.1007L142.63 20.33V23.8245C142.63 27.0925 142.209 29.5196 141.432 31.0728C140.624 32.6259 139.394 33.4027 137.711 33.4027C136.773 33.4027 135.932 33.1762 135.155 32.7556C134.469 32.3554 133.899 31.7815 133.504 31.0916L133.44 30.9756H133.343L132.825 33.079H128.716V1.72419H133.505V1.72388ZM113.701 2.85642V6.86846H108.783V33.1111H103.93V6.86877H98.9787V2.85673H113.702L113.701 2.85642ZM60.3426 2.85642L60.3457 2.86876C60.3929 3.07892 61.0472 5.98742 61.7668 9.3761L61.8236 9.64458L61.9094 10.0504L61.9668 10.3229L61.9955 10.4596L62.0529 10.7336L62.0816 10.8709L62.1387 11.1459L62.222 11.548C62.708 13.8946 63.1718 16.2479 63.4493 17.9353H63.5789C63.8446 16.4216 64.2306 14.4846 64.6423 12.5068L64.7503 11.9902C64.8046 11.7316 64.8589 11.473 64.9138 11.215L64.9984 10.8148C65.5574 8.19383 66.1332 5.57648 66.7256 2.96289L66.7349 2.92123L66.7497 2.85642H71.7005L65.9729 23.2746V33.079H61.087V23.3067H61.0546L55.3918 2.85611L60.3426 2.85642ZM77.2984 14.0198C76.6189 14.0198 76.1658 14.376 75.8748 15.1203C75.5835 15.8643 75.4542 16.9969 75.4542 18.5827V25.4749C75.4542 27.0928 75.5835 28.2899 75.8424 29.0021C76.1013 29.7137 76.5868 30.0699 77.2984 30.0699C77.9779 30.0699 78.4633 29.7137 78.7546 29.0021C79.046 28.2899 79.1753 27.0928 79.1753 25.4749V18.5824C79.1753 16.9969 79.0456 15.8319 78.7546 15.12C78.4633 14.376 77.9779 14.0198 77.2984 14.0198ZM134.379 14.6673C133.984 15.0314 133.704 15.4804 133.537 16.0418L133.505 16.1556V28.7105C133.906 29.39 134.476 29.843 135.479 29.8754C135.997 29.8754 136.417 29.6813 136.741 29.2931C137.064 28.9049 137.291 28.2575 137.42 27.3514C137.544 26.4818 137.609 25.2839 137.614 23.7582V20.6858C137.614 18.9385 137.549 17.6119 137.452 16.6734C137.323 15.735 137.161 15.0555 136.87 14.6673C136.307 13.8581 135.09 13.868 134.379 14.6673ZM151.496 13.9229C150.946 13.9553 150.558 14.117 150.331 14.4084C150.072 14.7318 149.91 15.2172 149.814 15.9291C149.718 16.6265 149.685 19.0644 149.684 19.162V20.7506H153.308V19.3496V19.3764C153.306 19.8662 153.296 19.0922 153.274 18.142L153.27 18.0143C153.25 17.1792 153.22 16.2482 153.179 15.9291C153.082 15.1848 152.92 14.667 152.661 14.376C152.402 14.0846 152.014 13.9229 151.496 13.9229H151.496Z" fill="#282828"/>
</g>
</svg>
